<?xml version="1.0" standalone="no"?>
<svg xmlns="http://www.w3.org/2000/svg" width="24" height="24"><rect width="24" height="24" opacity="0"></rect><g mask="url(#hms_mask_0)"><path d="M19.99 3.12Q20.3 3.12 20.83 3.22Q20.45 2.47 19.73 2.02Q19.01 1.56 18.17 1.56L5.83 1.56Q4.99 1.56 4.27 2.02Q3.55 2.47 3.17 3.22Q3.7 3.12 4.01 3.12L19.99 3.12Z" fill="rgba(254,249,255,1)"></path><path d="M3.65 4.44Q2.38 4.44 1.69 5.12Q1.01 5.81 1.01 7.08L1.01 19.8Q1.01 21.07 1.69 21.76Q2.38 22.44 3.65 22.44L20.35 22.44Q21.62 22.44 22.31 21.76Q22.99 21.07 22.99 19.8L22.99 7.08Q22.99 5.81 22.31 5.12Q21.62 4.44 20.35 4.44L3.65 4.44Z" fill="rgba(254,249,255,1)"></path></g><defs><mask id="hms_mask_0"><rect width="24" height="24" fill="#ffffff"></rect><g><path d="M15.77 8.06Q15.94 8.66 15.72 9.13Q15.5 9.6 14.93 10.01Q14.64 10.18 14.18 10.39Q13.75 10.58 13.55 10.76Q13.34 10.94 13.24 11.32Q13.13 11.69 13.13 12.38L13.13 15.94Q13.13 17.04 12.41 17.86Q11.69 18.67 10.66 18.79Q9.62 18.91 8.89 18.4Q8.16 17.88 8.16 16.92Q8.16 16.03 8.74 15.44Q9.31 14.86 9.98 14.62L10.13 14.57Q10.73 14.38 11.22 14.09Q11.71 13.8 11.71 13.44L11.71 9.6Q11.71 9.29 11.9 9.05Q12.1 8.81 12.38 8.76L15.77 8.06Z" fill="#000000"></path></g></mask></defs></svg>